<svg width="300" height="300" viewBox="0 0 300 300" fill="none" xmlns="http://www.w3.org/2000/svg">
<path d="M171.077 134.735C184.818 115.002 187.116 113.956 187.116 113.956C187.116 113.956 194.467 214.839 216.186 279.524H193.631C174.419 218.861 171.37 137.5 171.077 134.735ZM42.1011 137.751C42.1011 137.751 49.8698 142.779 57.8049 157.525C57.3498 162.597 50.788 240.644 39.4267 279.524H17.7085C34.7515 240.31 42.1011 137.751 42.1011 137.751Z" fill="#4383C9"/>
<path d="M100.492 203.057C94.339 203.057 89.2507 193.099 82.2098 179.316C73.2122 161.7 61.0048 137.802 37.9414 117.779L61.8168 108.37C67.0474 112.542 94.333 135.403 103.587 165.245C103.702 165.611 103.918 165.937 104.21 166.183C104.502 166.43 104.859 166.588 105.238 166.639C105.617 166.689 106.002 166.63 106.349 166.468C106.695 166.307 106.988 166.049 107.194 165.726C150.085 97.8987 201.222 61.1746 236.569 42.3119C259.536 30.0551 279.54 23.2983 292.307 19.8777C200.757 67.9998 163.203 126.136 137.958 165.213C123.238 188.001 113.513 203.057 100.492 203.057Z" fill="#CECFD0"/>
<path d="M273.991 27.7639C194.183 74.4803 158.541 129.655 136.278 164.117C121.913 186.354 112.424 201.044 100.492 201.044C95.5638 201.044 90.2029 190.548 83.994 178.396C75.243 161.265 63.4867 138.25 41.7204 118.448L61.4699 110.665C68.2361 116.196 93.0097 137.906 101.675 165.84C101.901 166.574 102.332 167.227 102.917 167.723C103.502 168.218 104.216 168.535 104.975 168.636C105.734 168.737 106.506 168.618 107.199 168.292C107.893 167.967 108.479 167.448 108.888 166.799C151.356 99.6414 201.925 63.1828 236.869 44.4246C250.823 36.9398 263.437 31.5766 273.991 27.7639ZM306.737 14.8314C303.395 14.8314 188.954 32.6786 105.504 164.647C94.9784 130.713 62.1495 106.078 62.1495 106.078L34.082 117.139C78.1881 153.587 83.9519 205.068 100.492 205.068C138.583 205.068 146.352 92.8403 306.737 14.8314Z" fill="#CECFD0"/>
</svg>
