<svg xmlns="http://www.w3.org/2000/svg" viewBox="0 0 415 149.183">
  <path fill="#3A6AB3" d="M162.243 138.366l-1.772-8.379h-.43c-2.937 3.688-5.864 6.186-8.782 7.492-2.919 1.308-6.562 1.961-10.93 1.961-5.837 0-10.412-1.504-13.723-4.512-3.313-3.008-4.968-7.286-4.968-12.837 0-11.888 9.507-18.118 28.521-18.691l9.99-.322v-3.652c0-4.619-.994-8.03-2.981-10.232s-5.166-3.303-9.534-3.303c-4.906 0-10.456 1.504-16.65 4.512l-2.739-6.821c2.9-1.575 6.078-2.811 9.534-3.706a41.293 41.293 0 0110.393-1.343c7.018 0 12.219 1.558 15.603 4.673s5.076 8.11 5.076 14.985v40.176h-6.608zm-20.142-6.284c5.55 0 9.91-1.521 13.079-4.565 3.169-3.043 4.753-7.305 4.753-12.783v-5.317l-8.916.376c-7.09.251-12.202 1.352-15.334 3.303-3.134 1.952-4.7 4.987-4.7 9.104 0 3.223.975 5.676 2.927 7.358 1.951 1.683 4.681 2.524 8.191 2.524zM214.074 78.425c2.613 0 4.959.215 7.035.645l-1.234 8.271c-2.436-.537-4.584-.806-6.445-.806-4.763 0-8.836 1.934-12.22 5.801s-5.076 8.684-5.076 14.448v31.582h-8.916V79.499h7.358l1.021 10.903h.43c2.184-3.831 4.815-6.785 7.896-8.862 3.078-2.076 6.462-3.115 10.151-3.115zM240.93 108.234c1.539-2.184 3.885-5.049 7.036-8.594l19.014-20.142h10.581l-23.848 25.083 25.513 33.784H268.43l-20.786-27.822-6.714 5.801v22.021h-8.809V54.792h8.809v44.312c0 1.97-.144 5.014-.43 9.131h.43zM350.5 59.841v50.811c0 8.952-2.704 15.988-8.11 21.108-5.407 5.121-12.837 7.681-22.29 7.681s-16.767-2.578-21.94-7.734c-5.175-5.156-7.762-12.246-7.762-21.27V59.841h9.131v51.24c0 6.553 1.79 11.584 5.371 15.093 3.58 3.51 8.844 5.264 15.791 5.264 6.624 0 11.727-1.764 15.308-5.29 3.58-3.527 5.371-8.585 5.371-15.174V59.841h9.13zM407.917 122.307c0 5.479-2.041 9.704-6.123 12.676-4.082 2.973-9.812 4.458-17.188 4.458-7.807 0-13.894-1.235-18.262-3.706v-8.271c2.828 1.433 5.863 2.561 9.104 3.384 3.24.824 6.364 1.235 9.372 1.235 4.654 0 8.235-.743 10.742-2.229 2.506-1.485 3.76-3.75 3.76-6.794 0-2.291-.993-4.252-2.981-5.882-1.986-1.629-5.863-3.553-11.628-5.773-5.479-2.041-9.372-3.822-11.683-5.344-2.309-1.522-4.027-3.25-5.156-5.184-1.127-1.934-1.691-4.243-1.691-6.929 0-4.798 1.951-8.584 5.854-11.36 3.902-2.774 9.256-4.163 16.06-4.163 6.338 0 12.532 1.289 18.584 3.867l-3.169 7.251c-5.908-2.435-11.262-3.652-16.06-3.652-4.226 0-7.412.663-9.561 1.987-2.148 1.325-3.223 3.151-3.223 5.479 0 1.576.402 2.919 1.209 4.028.805 1.11 2.103 2.167 3.894 3.169 1.79 1.003 5.228 2.453 10.313 4.351 6.982 2.543 11.7 5.103 14.153 7.681 2.453 2.577 3.68 5.818 3.68 9.721zM85.333 67c6.854-9.813 8-10.333 8-10.333S97 106.834 107.833 139h-11.25C87 108.834 85.479 68.375 85.333 67zM21 68.5s3.875 2.5 7.833 9.833c-.227 2.522-3.5 41.333-9.167 60.667H8.833C17.334 119.5 21 68.5 21 68.5z"/>
  <path fill="#CAE6EF" d="M50.125 100.975c-3.069 0-5.607-4.952-9.119-11.806-4.488-8.76-10.577-20.644-22.081-30.601l11.909-4.679c2.609 2.075 16.219 13.443 20.835 28.283a1.001 1.001 0 001.799.239C74.862 48.682 100.369 30.42 118 21.04c11.456-6.095 21.434-9.455 27.802-11.156-45.665 23.93-64.397 52.84-76.989 72.272-7.342 11.332-12.193 18.819-18.688 18.819z"/>
  <path fill="#3A6AB3" d="M136.666 13.806C96.858 37.037 79.08 64.474 67.975 81.611c-7.165 11.058-11.898 18.363-17.85 18.363-2.458 0-5.132-5.219-8.229-11.262-4.365-8.519-10.229-19.964-21.086-29.811l9.851-3.87c3.375 2.75 15.732 13.546 20.054 27.437a1.998 1.998 0 003.598.477c21.183-33.396 46.407-51.526 63.837-60.854 6.96-3.722 13.252-6.389 18.516-8.285M153 7.375c-1.667 0-58.75 8.875-100.375 74.5C47.375 65 31 52.75 31 52.75l-14 5.5c22 18.125 24.875 43.725 33.125 43.725 19 0 22.875-55.808 102.875-94.6z"/>
</svg>
