<svg width="810" height="292" viewBox="0 0 810 292" fill="none" xmlns="http://www.w3.org/2000/svg">
<path d="M316.667 270.829L313.208 254.428H312.369C306.637 261.647 300.924 266.536 295.228 269.093C289.531 271.653 282.421 272.931 273.895 272.931C262.502 272.931 253.573 269.987 247.11 264.1C240.644 258.212 237.414 249.838 237.414 238.973C237.414 215.705 255.97 203.51 293.081 202.389L312.58 201.759V194.61C312.58 185.57 310.64 178.893 306.762 174.583C302.883 170.273 296.678 168.118 288.153 168.118C278.577 168.118 267.745 171.062 255.655 176.949L250.309 163.599C255.97 160.516 262.173 158.097 268.918 156.345C275.541 154.608 282.357 153.725 289.203 153.716C302.901 153.716 313.052 156.766 319.657 162.863C326.262 168.96 329.565 178.737 329.565 192.193V270.831H316.667V270.829ZM277.354 258.529C288.186 258.529 296.696 255.552 302.881 249.594C309.067 243.638 312.158 235.295 312.158 224.573V214.166L294.756 214.902C280.918 215.393 270.94 217.548 264.827 221.367C258.71 225.188 255.653 231.128 255.653 239.187C255.653 245.495 257.556 250.296 261.366 253.589C265.174 256.883 270.503 258.529 277.354 258.529ZM417.831 153.505C422.931 153.505 427.51 153.925 431.562 154.767L429.153 170.956C424.399 169.905 420.206 169.379 416.574 169.379C407.278 169.379 399.328 173.164 392.723 180.733C386.118 188.302 382.816 197.73 382.816 209.012V270.829H365.413V155.607H379.775L381.768 176.948H382.607C386.87 169.449 392.005 163.667 398.018 159.602C404.026 155.538 410.631 153.505 417.831 153.505ZM470.249 211.851C473.253 207.576 477.832 201.968 483.982 195.029L521.093 155.605H541.745L495.199 204.7L544.995 270.827H523.923L483.353 216.37L470.249 227.725V270.827H453.055V107.247H470.249V193.98C470.249 197.836 469.968 203.794 469.409 211.853H470.249V211.851ZM684.108 117.13V216.583C684.108 234.105 678.831 247.877 668.279 257.899C657.726 267.922 643.224 272.933 624.773 272.933C606.323 272.933 592.047 267.887 581.951 257.795C571.85 247.703 566.801 233.826 566.801 216.163V117.13H584.623V217.423C584.623 230.249 588.116 240.097 595.106 246.965C602.093 253.835 612.368 257.268 625.927 257.268C638.856 257.268 648.816 253.816 655.805 246.914C662.793 240.011 666.288 230.111 666.288 217.214V117.13H684.108ZM796.175 239.396C796.175 250.12 792.192 258.39 784.224 264.207C776.257 270.026 765.073 272.933 750.677 272.933C735.439 272.933 723.558 270.516 715.033 265.679V249.49C720.552 252.295 726.476 254.503 732.802 256.114C739.126 257.726 745.223 258.531 751.094 258.531C760.178 258.531 767.167 257.077 772.061 254.168C776.952 251.261 779.399 246.828 779.399 240.87C779.399 236.386 777.461 232.547 773.581 229.357C769.705 226.168 762.138 222.403 750.885 218.057C740.192 214.062 732.593 210.576 728.082 207.597C723.576 204.618 720.223 201.236 718.019 197.451C715.819 193.665 714.719 189.146 714.719 183.888C714.719 174.497 718.526 167.087 726.144 161.653C733.76 156.223 744.21 153.505 757.49 153.505C769.861 153.505 781.95 156.028 793.763 161.074L787.577 175.266C776.046 170.5 765.596 168.118 756.231 168.118C747.983 168.118 741.765 169.416 737.57 172.007C733.378 174.601 731.28 178.175 731.28 182.731C731.28 185.816 732.064 188.445 733.639 190.616C735.211 192.788 737.744 194.857 741.24 196.818C744.733 198.782 751.444 201.62 761.369 205.335C774.996 210.312 784.205 215.323 788.992 220.369C793.78 225.413 796.175 231.757 796.175 239.396ZM166.553 131.142C179.931 111.935 182.168 110.917 182.168 110.917C182.168 110.917 189.325 209.11 210.469 272.07H188.511C169.807 213.025 166.838 133.833 166.553 131.142ZM40.9879 134.078C40.9879 134.078 48.5511 138.971 56.2764 153.325C55.8333 158.261 49.445 234.227 38.3842 272.07H17.2402C33.8325 233.902 40.9879 134.078 40.9879 134.078Z" fill="#4383C9"/>
<path d="M97.8344 197.643C91.8443 197.643 86.8906 187.95 80.0359 174.534C71.2761 157.388 59.3916 134.127 36.938 114.638L60.1821 105.48C65.2743 109.541 91.8384 131.792 100.848 160.839C100.959 161.195 101.17 161.512 101.454 161.752C101.739 161.992 102.086 162.146 102.455 162.195C102.824 162.244 103.199 162.187 103.536 162.029C103.874 161.872 104.159 161.621 104.359 161.307C146.116 95.2881 195.901 59.5433 230.313 41.1836C252.673 29.2537 272.148 22.6771 284.577 19.3477C195.448 66.1865 158.887 122.773 134.31 160.808C119.98 182.988 110.511 197.643 97.8344 197.643Z" fill="#CECFD0"/>
<path d="M266.746 27.0235C189.048 72.4942 154.349 126.197 132.674 159.74C118.689 181.384 109.451 195.682 97.8343 195.682C93.0367 195.682 87.8176 185.467 81.7729 173.639C73.2532 156.965 61.8078 134.563 40.617 115.289L59.8443 107.714C66.4316 113.097 90.5501 134.228 98.9858 161.418C99.206 162.132 99.6257 162.768 100.195 163.25C100.765 163.732 101.46 164.041 102.199 164.139C102.938 164.237 103.69 164.121 104.365 163.804C105.04 163.487 105.61 162.983 106.008 162.351C147.354 96.9843 196.586 61.4979 230.606 43.2399C244.191 35.9548 256.471 30.7346 266.746 27.0235ZM298.626 14.4359C295.373 14.4359 183.958 31.8072 102.714 160.257C92.4668 127.227 60.506 103.25 60.506 103.25L33.1807 114.015C76.1204 149.492 81.7319 199.599 97.8343 199.599C134.919 199.599 142.482 90.3646 298.626 14.4359Z" fill="#CECFD0"/>
</svg>
